<svg xmlns="http://www.w3.org/2000/svg" xmlns:xlink="http://www.w3.org/1999/xlink" version="1.1" width="256" height="256" viewBox="0 0 256 256" xml:space="preserve">

<defs>
</defs>
<g style="stroke: none; stroke-width: 0; stroke-dasharray: none; stroke-linecap: butt; stroke-linejoin: miter; stroke-miterlimit: 10; fill: none; fill-rule: nonzero; opacity: 1;" transform="translate(1.4065934065934016 1.4065934065934016) scale(2.81 2.81)" >
	<path d="M 48.831 86.169 c -13.336 0 -25.904 -6.506 -33.62 -17.403 c -2.333 -3.295 -4.163 -6.901 -5.437 -10.717 l 5.606 -1.872 c 1.09 3.265 2.657 6.352 4.654 9.174 c 6.61 9.336 17.376 14.908 28.797 14.908 c 19.443 0 35.26 -15.817 35.26 -35.26 c 0 -19.442 -15.817 -35.259 -35.26 -35.259 C 29.389 9.74 13.571 25.558 13.571 45 h -5.91 c 0 -22.701 18.468 -41.169 41.169 -41.169 C 71.532 3.831 90 22.299 90 45 C 90 67.701 71.532 86.169 48.831 86.169 z" style="stroke: none; stroke-width: 1; stroke-dasharray: none; stroke-linecap: butt; stroke-linejoin: miter; stroke-miterlimit: 10; fill: rgb(255,255,255); fill-rule: nonzero; opacity: 1;" transform=" matrix(1 0 0 1 0 0) " stroke-linecap="round" />
	<polygon points="64.67,61.69 45.88,46.41 45.88,19.03 51.78,19.03 51.78,43.59 68.4,57.1 " style="stroke: none; stroke-width: 1; stroke-dasharray: none; stroke-linecap: butt; stroke-linejoin: miter; stroke-miterlimit: 10; fill: rgb(255,255,255); fill-rule: nonzero; opacity: 1;" transform="  matrix(1 0 0 1 0 0) "/>
	<polygon points="21.23,40.41 10.62,51.02 0,40.41 " style="stroke: none; stroke-width: 1; stroke-dasharray: none; stroke-linecap: butt; stroke-linejoin: miter; stroke-miterlimit: 10; fill: rgb(255,255,255); fill-rule: nonzero; opacity: 1;" transform="  matrix(1 0 0 1 0 0) "/>
</g>
</svg>